<svg xmlns="http://www.w3.org/2000/svg" viewBox="0 0 43.51 109.57"><defs><style>.cls-1{fill:#e55446;}.cls-2{fill:#fff;}</style></defs><title>Asset 6</title><g id="Layer_2" data-name="Layer 2"><g id="Layer_1-2" data-name="Layer 1"><circle class="cls-1" cx="27.4" cy="103.75" r="5.82"/><circle class="cls-1" cx="17.37" cy="17.37" r="17.37"/><path class="cls-2" d="M30.94,17.37s0-.33.07-.92a6.41,6.41,0,0,0,0-1.06A7.53,7.53,0,0,0,30.84,14a8.66,8.66,0,0,0-.4-1.61,12.76,12.76,0,0,0-.69-1.73,13.76,13.76,0,0,0-1-1.7,15.74,15.74,0,0,0-1.33-1.59A15.73,15.73,0,0,0,25.79,6a13.31,13.31,0,0,0-1.7-1,12.74,12.74,0,0,0-1.73-.69,8.64,8.64,0,0,0-1.61-.4,7.45,7.45,0,0,0-1.39-.15,6.4,6.4,0,0,0-1.07,0c-.59,0-.92.07-.92.07l.91.16a13.29,13.29,0,0,1,2.3.58A11.49,11.49,0,0,1,22,5.11c.52.19,1,.52,1.55.78a18.44,18.44,0,0,1,1.52,1,14.8,14.8,0,0,1,1.44,1.25A15,15,0,0,1,27.8,9.63a18,18,0,0,1,1,1.52c.26.54.59,1,.78,1.55a11.72,11.72,0,0,1,.56,1.46,13.15,13.15,0,0,1,.58,2.3C30.87,17,30.94,17.37,30.94,17.37Z"/><circle class="cls-1" cx="33.1" cy="58.47" r="10.41" transform="translate(-9.49 6.5) rotate(-9.82)"/><path class="cls-2" d="M41.23,58.47s0-.2,0-.55a4,4,0,0,0,0-.64,4.46,4.46,0,0,0-.09-.83,5.27,5.27,0,0,0-.24-1,7.65,7.65,0,0,0-.42-1,8.27,8.27,0,0,0-.63-1,7,7,0,0,0-1.75-1.75,7.82,7.82,0,0,0-1-.63,7.53,7.53,0,0,0-1-.42,5.16,5.16,0,0,0-1-.24,4.41,4.41,0,0,0-.83-.09,3.81,3.81,0,0,0-.64,0l-.55,0,.54.1a8,8,0,0,1,1.38.35,6.8,6.8,0,0,1,.88.34c.31.12.61.31.93.47a10.84,10.84,0,0,1,.91.63,8.9,8.9,0,0,1,.86.75,9.16,9.16,0,0,1,.75.86,10.94,10.94,0,0,1,.63.91c.16.32.36.62.47.93a6.88,6.88,0,0,1,.34.88,7.93,7.93,0,0,1,.35,1.38C41.19,58.28,41.23,58.47,41.23,58.47Z"/><circle class="cls-1" cx="13.14" cy="87.42" r="6.98"/><path class="cls-2" d="M18.58,87.42s0-.14,0-.37a2.5,2.5,0,0,0,0-.43,2.91,2.91,0,0,0-.06-.56,3.49,3.49,0,0,0-.16-.65,4.92,4.92,0,0,0-.28-.69,5.58,5.58,0,0,0-.42-.68,6.22,6.22,0,0,0-.53-.64,6.16,6.16,0,0,0-.64-.53,4.61,4.61,0,0,0-1.38-.7,3.46,3.46,0,0,0-.65-.16,3,3,0,0,0-.56-.06,2.63,2.63,0,0,0-.43,0l-.37,0,.36.06a5.33,5.33,0,0,1,.93.23,4.47,4.47,0,0,1,.59.23c.21.08.4.21.62.31a7.26,7.26,0,0,1,.61.42,6.07,6.07,0,0,1,.58.5,6,6,0,0,1,.5.58,7.09,7.09,0,0,1,.42.61c.1.22.24.41.31.62a4.57,4.57,0,0,1,.23.59,5.37,5.37,0,0,1,.24.92C18.56,87.29,18.58,87.42,18.58,87.42Z"/></g></g></svg>